<svg width="33" height="33" viewBox="0 0 33 33" fill="none" xmlns="http://www.w3.org/2000/svg">
<path d="M14.2533 11.4964C14.2533 14.0106 14.2533 15.2676 13.4723 16.0487C12.6912 16.8298 11.4341 16.8298 8.92 16.8298C6.40584 16.8298 5.14876 16.8298 4.36772 16.0487C3.58667 15.2676 3.58667 14.0106 3.58667 11.4964C3.58667 8.98226 3.58667 7.72518 4.36772 6.94414C5.14876 6.16309 6.40584 6.16309 8.92 6.16309C11.4341 6.16309 12.6912 6.16309 13.4723 6.94414C14.2533 7.72518 14.2533 8.98226 14.2533 11.4964Z" stroke="#1CA8CB" stroke-width="1.5"/>
<path d="M14.2533 10.1631V16.1392C14.2533 21.436 10.8991 25.928 6.25336 27.4964" stroke="#1CA8CB" stroke-width="1.5" stroke-linecap="round"/>
<path d="M30.2533 11.4964C30.2533 14.0106 30.2533 15.2676 29.4723 16.0487C28.6912 16.8298 27.4341 16.8298 24.92 16.8298C22.4059 16.8298 21.1488 16.8298 20.3677 16.0487C19.5867 15.2676 19.5867 14.0106 19.5867 11.4964C19.5867 8.98226 19.5867 7.72518 20.3677 6.94414C21.1488 6.16309 22.4059 6.16309 24.92 6.16309C27.4341 6.16309 28.6912 6.16309 29.4723 6.94414C30.2533 7.72518 30.2533 8.98226 30.2533 11.4964Z" stroke="#1CA8CB" stroke-width="1.5"/>
<path d="M30.2533 10.1631V16.1392C30.2533 21.436 26.8991 25.928 22.2533 27.4964" stroke="#1CA8CB" stroke-width="1.5" stroke-linecap="round"/>
</svg>
